# Blender v2.76 (sub 0) OBJ File: 'Street_Curve.blend'
# www.blender.org
mtllib Street_Curve.mtl
o Street_Curve_Cube.001
v -1.000000 0.100000 1.000000
v -1.000000 0.100000 -1.000000
v -1.000000 -0.100000 -1.000000
v -1.000000 -0.100000 1.000000
v -0.333333 -0.100000 1.000000
v -0.333333 0.100000 1.000000
v -1.000000 0.150000 1.000000
v -1.000000 0.150000 -1.000000
v 1.000000 0.100000 -1.000000
v 1.000000 -0.100000 -1.000000
v 1.000000 -0.100000 -0.333333
v 1.000000 -0.100000 0.333333
v 1.000000 -0.100000 1.000000
v 0.333333 -0.100000 1.000000
v 0.333333 0.100000 1.000000
v -0.333333 0.150000 1.000000
v -0.326445 0.150000 0.346392
v -0.307291 0.150000 0.250000
v -0.277244 0.150000 0.166667
v -0.250000 0.150000 0.111600
v -0.236466 0.150000 0.083333
v -0.191396 0.150000 0.000000
v -0.166667 0.150000 -0.030977
v -0.124865 0.150000 -0.083333
v -0.083333 0.150000 -0.128773
v -0.041163 0.150000 -0.166667
v 0.000000 0.150000 -0.199597
v 0.083333 0.150000 -0.250000
v 0.166667 0.150000 -0.287591
v 0.250000 0.150000 -0.311199
v 0.333333 0.150000 -0.326716
v 0.416667 0.150000 -0.333333
v 0.500000 0.150000 -0.333333
v 0.583333 0.150000 -0.333333
v 0.666667 0.150000 -0.333333
v 0.750000 0.150000 -0.333333
v 0.833333 0.150000 -0.333333
v 0.916667 0.150000 -0.333333
v 1.000000 0.150000 -0.333333
v 1.000000 0.150000 -1.000000
v 1.000000 0.100000 -0.333333
v 1.000000 0.100000 0.333333
v 1.000000 0.100000 0.030331
v 1.000000 0.100000 1.000000
v -0.030563 0.100000 0.999988
v -0.030563 0.100000 0.857131
v 0.030043 0.100000 0.857131
v 0.028045 0.100000 0.614392
v -0.032475 0.100000 0.611167
v -0.029779 0.100000 0.536101
v -0.015958 0.100000 0.448218
v 0.011649 0.100000 0.366854
v 0.047282 0.100000 0.304948
v 0.099808 0.100000 0.335182
v 0.257283 0.100000 0.154949
v 0.212950 0.100000 0.113625
v 0.275492 0.100000 0.066461
v 0.833333 0.100000 -0.333333
v 0.750000 0.100000 -0.333333
v 0.666667 0.100000 -0.333333
v 0.583333 0.100000 -0.333333
v 0.500000 0.100000 -0.333333
v 0.416667 0.100000 -0.333333
v 0.333333 0.100000 -0.326716
v 0.250000 0.100000 -0.311199
v 0.166667 0.100000 -0.287591
v 0.083333 0.100000 -0.250000
v 0.000000 0.100000 -0.199597
v -0.041163 0.100000 -0.166667
v -0.083333 0.100000 -0.128773
v -0.124865 0.100000 -0.083333
v -0.166667 0.100000 -0.030977
v -0.191396 0.100000 0.000000
v -0.236466 0.100000 0.083333
v -0.250000 0.100000 0.111600
v -0.277244 0.100000 0.166667
v -0.307291 0.100000 0.250000
v -0.326445 0.100000 0.346392
v 0.333333 0.100000 0.916667
v 0.333333 0.100000 0.833333
v 0.353735 0.100000 0.750000
v 0.377344 0.100000 0.666667
v 0.416667 0.100000 0.583333
v 0.467484 0.100000 0.500000
v 0.500000 0.100000 0.466579
v 0.583333 0.100000 0.416667
v 0.666667 0.100000 0.378586
v 0.750000 0.100000 0.357123
v 0.833333 0.100000 0.337808
v 0.916667 0.100000 0.333333
v 0.857160 0.100000 0.030717
v 0.856996 0.100000 -0.029888
v 0.999853 0.100000 -0.030275
v 0.916667 0.100000 -0.333333
v 0.342341 0.100000 0.033907
v 0.431198 0.100000 0.014259
v 0.502335 0.100000 0.007803
v 0.507812 0.100000 0.068161
v 0.436676 0.100000 0.074617
v 0.359153 0.100000 0.092134
v 0.299826 0.100000 0.121354
v 0.064175 0.100000 0.397088
v 0.040431 0.100000 0.470429
v 0.029751 0.100000 0.545559
v 0.030043 0.100000 0.999988
v 1.000000 0.150000 0.333333
v 1.000000 0.150000 1.000000
v 0.333333 0.150000 1.000000
v 0.333333 0.150000 0.916667
v 0.333333 0.150000 0.833333
v 0.353735 0.150000 0.750000
v 0.377344 0.150000 0.666667
v 0.416667 0.150000 0.583333
v 0.467484 0.150000 0.500000
v 0.500000 0.150000 0.466579
v 0.583333 0.150000 0.416667
v 0.666667 0.150000 0.378586
v 0.750000 0.150000 0.357123
v 0.833333 0.150000 0.337808
v 0.916667 0.150000 0.333333
v 0.999853 0.119999 -0.030275
v 0.856996 0.119999 -0.029888
v 0.857160 0.119999 0.030717
v 1.000017 0.119999 0.030331
v 0.502335 0.119999 0.007803
v 0.507812 0.119999 0.068161
v 0.431198 0.119999 0.014259
v 0.436676 0.119999 0.074617
v 0.342341 0.119999 0.033907
v 0.359153 0.119999 0.092134
v 0.275492 0.119999 0.066461
v 0.299826 0.119999 0.121354
v 0.212950 0.119999 0.113625
v 0.257283 0.119999 0.154949
v 0.047282 0.119999 0.304948
v 0.099808 0.119999 0.335182
v 0.011649 0.119999 0.366854
v 0.064175 0.119999 0.397088
v -0.015958 0.119999 0.448218
v 0.040431 0.119999 0.470429
v -0.029779 0.119999 0.536101
v 0.029751 0.119999 0.545559
v -0.032475 0.119999 0.611167
v 0.028045 0.119999 0.614392
v -0.030563 0.119999 0.857131
v 0.030043 0.119999 0.857131
v -0.030563 0.119999 0.999988
v 0.030043 0.119999 0.999988
vn -1.000000 0.000000 0.000000
vn 0.000000 0.000000 1.000000
vn 0.000000 0.000000 -1.000000
vn 0.000000 -1.000000 -0.000000
vn 0.000000 1.000000 -0.000000
vn 1.000000 0.000000 0.000000
vn 0.999900 0.000000 0.010500
vn 0.980800 0.000000 0.194900
vn 0.940700 0.000000 0.339200
vn 0.896300 0.000000 0.443400
vn 0.902000 0.000000 0.431800
vn 0.879600 0.000000 0.475700
vn 0.781500 0.000000 0.623900
vn 0.738100 0.000000 0.674700
vn 0.668400 0.000000 0.743800
vn 0.624700 0.000000 0.780900
vn 0.517500 0.000000 0.855700
vn 0.411200 0.000000 0.911500
vn 0.272600 0.000000 0.962100
vn 0.183100 0.000000 0.983100
vn 0.079200 0.000000 0.996900
vn -0.971300 0.000000 -0.237800
vn -0.962100 0.000000 -0.272600
vn -0.904400 0.000000 -0.426800
vn -0.853800 0.000000 -0.520600
vn -0.716700 0.000000 -0.697300
vn -0.513800 0.000000 -0.857900
vn -0.415600 0.000000 -0.909500
vn -0.249400 0.000000 -0.968400
vn -0.225800 0.000000 -0.974200
vn -0.053600 0.000000 -0.998600
vn 0.002700 0.000000 1.000000
vn 0.995900 0.000000 -0.090400
vn -0.090400 0.000000 -0.995900
vn 0.090400 0.000000 0.995900
vn -0.215900 0.000000 -0.976400
vn 0.220400 0.000000 0.975400
vn -0.437800 0.000000 -0.899100
vn 0.441800 0.000000 0.897100
vn -0.602100 0.000000 -0.798400
vn 0.619700 0.000000 0.784800
vn -0.681900 0.000000 0.731500
vn 0.498900 0.000000 -0.866700
vn -0.866700 0.000000 -0.498900
vn 0.866700 0.000000 0.498900
vn -0.947000 0.000000 -0.321300
vn 0.951400 0.000000 0.308000
vn -0.987900 0.000000 -0.155400
vn 0.990000 0.000000 0.140700
vn -0.999400 0.000000 -0.035900
vn 0.999700 0.000000 0.024800
vn -0.053200 0.000000 0.998600
vn 1.000000 -0.000400 -0.002600
vn -0.002700 0.000000 -1.000000
vn -1.000000 0.000000 0.002700
usemtl Grey.
s off
f 1//1 2//1 3//1 4//1
f 5//2 6//2 1//2 4//2
f 1//1 7//1 8//1 2//1
f 2//3 9//3 10//3 3//3
f 3//4 10//4 11//4 12//4 13//4 14//4 5//4 4//4
f 1//2 6//2 16//2 7//2
f 8//5 7//5 16//5 17//5 18//5 19//5 20//5 21//5 22//5 23//5 24//5 25//5 26//5 27//5 28//5 29//5 30//5 31//5 32//5 33//5 34//5 35//5 36//5 37//5 38//5 39//5 40//5
f 2//3 8//3 40//3 9//3
f 9//6 41//6 11//6 10//6
f 42//6 44//6 13//6 12//6
f 44//2 15//2 14//2 13//2
f 78//7 17//7 16//7 6//7
f 78//8 77//8 18//8 17//8
f 77//9 76//9 19//9 18//9
f 76//10 75//10 20//10 19//10
f 75//11 74//11 21//11 20//11
f 74//12 73//12 22//12 21//12
f 73//13 72//13 23//13 22//13
f 72//13 71//13 24//13 23//13
f 71//14 70//14 25//14 24//14
f 70//15 69//15 26//15 25//15
f 69//16 68//16 27//16 26//16
f 68//17 67//17 28//17 27//17
f 67//18 66//18 29//18 28//18
f 66//19 65//19 30//19 29//19
f 65//20 64//20 31//20 30//20
f 64//21 63//21 32//21 31//21
f 63//2 62//2 33//2 32//2
f 62//2 61//2 34//2 33//2
f 61//2 60//2 35//2 34//2
f 60//2 59//2 36//2 35//2
f 59//2 58//2 37//2 36//2
f 58//2 94//2 38//2 37//2
f 94//2 41//2 39//2 38//2
f 41//6 9//6 40//6 39//6
f 44//6 42//6 106//6 107//6
f 15//2 44//2 107//2 108//2
f 79//1 15//1 108//1 109//1
f 80//1 79//1 109//1 110//1
f 81//22 80//22 110//22 111//22
f 82//23 81//23 111//23 112//23
f 83//24 82//24 112//24 113//24
f 84//25 83//25 113//25 114//25
f 85//26 84//26 114//26 115//26
f 86//27 85//27 115//27 116//27
f 87//28 86//28 116//28 117//28
f 88//29 87//29 117//29 118//29
f 89//30 88//30 118//30 119//30
f 90//31 89//31 119//31 120//31
f 42//3 90//3 120//3 106//3
f 120//5 119//5 118//5 117//5 116//5 115//5 114//5 113//5 112//5 111//5 110//5 109//5 108//5 107//5 106//5
usemtl Black
f 15//2 6//2 5//2 14//2
f 6//5 45//5 46//5 47//5 48//5 49//5 50//5 51//5 52//5 53//5 54//5 55//5 56//5 57//5 58//5 59//5 60//5 61//5 62//5 63//5 64//5 65//5 66//5 67//5 68//5 69//5 70//5 71//5 72//5 73//5 74//5 75//5 76//5 77//5 78//5
f 43//5 93//5 92//5 91//5
f 15//5 79//5 80//5 81//5 82//5 83//5 84//5 85//5 86//5 87//5 88//5 89//5 90//5 42//5 43//5 41//5 94//5 58//5 57//5 95//5 96//5 97//5 98//5 99//5 100//5 101//5 55//5 54//5 102//5 103//5 104//5 48//5 47//5 105//5 45//5 6//5
f 41//6 43//6 11//6
f 42//6 12//6 11//6 43//6
usemtl White
f 43//32 124//32 123//32 91//32
f 97//33 125//33 126//33 98//33
f 96//34 127//34 125//34 97//34
f 125//5 127//5 128//5 126//5
f 98//35 126//35 128//35 99//35
f 95//36 129//36 127//36 96//36
f 127//5 129//5 130//5 128//5
f 99//37 128//37 130//37 100//37
f 57//38 131//38 129//38 95//38
f 129//5 131//5 132//5 130//5
f 100//39 130//39 132//39 101//39
f 56//40 133//40 131//40 57//40
f 131//5 133//5 134//5 132//5
f 101//41 132//41 134//41 55//41
f 55//42 134//42 133//42 56//42
f 53//43 135//43 136//43 54//43
f 52//44 137//44 135//44 53//44
f 135//5 137//5 138//5 136//5
f 54//45 136//45 138//45 102//45
f 51//46 139//46 137//46 52//46
f 137//5 139//5 140//5 138//5
f 102//47 138//47 140//47 103//47
f 50//48 141//48 139//48 51//48
f 139//5 141//5 142//5 140//5
f 103//49 140//49 142//49 104//49
f 49//50 143//50 141//50 50//50
f 141//5 143//5 144//5 142//5
f 104//51 142//51 144//51 48//51
f 48//52 144//52 143//52 49//52
f 46//3 145//3 146//3 47//3
f 45//1 147//1 145//1 46//1
f 145//5 147//5 148//5 146//5
f 47//6 146//6 148//6 105//6
f 105//2 148//2 147//2 45//2
f 121//5 122//5 123//5 124//5
f 93//53 121//53 124//53 43//53
f 92//54 122//54 121//54 93//54
f 91//55 123//55 122//55 92//55
