# Blender v2.76 (sub 0) OBJ File: 'Street_Straight.blend'
# www.blender.org
mtllib Street_Straight.mtl
o Street_Straight_Cube.003
v 1.000000 -0.100000 -1.000000
v 1.000000 0.100000 -1.000000
v 1.000000 -0.100000 1.000000
v 1.000000 0.100000 1.000000
v -1.000000 -0.100000 -1.000000
v -1.000000 0.100000 -1.000000
v -1.000000 -0.100000 1.000000
v -1.000000 0.100000 1.000000
v 1.000000 0.100000 -0.333333
v 1.000000 0.100000 0.333333
v 1.000000 -0.100000 0.333333
v 1.000000 -0.100000 -0.333333
v -1.000000 0.100000 0.333333
v -1.000000 0.100000 -0.333333
v -1.000000 -0.100000 -0.333333
v -1.000000 -0.100000 0.333333
v 1.000000 0.100000 -0.030303
v 1.000000 0.100000 0.030303
v 1.000000 -0.100000 0.030303
v 1.000000 -0.100000 -0.030303
v -1.000000 0.100000 0.030303
v -1.000000 0.100000 -0.030303
v -1.000000 -0.100000 -0.030303
v -1.000000 -0.100000 0.030303
v 0.857143 0.100000 1.000000
v 0.642857 0.100000 1.000000
v 0.357143 0.100000 1.000000
v 0.142857 0.100000 1.000000
v -0.142857 0.100000 1.000000
v -0.357143 0.100000 1.000000
v -0.642857 0.100000 1.000000
v -0.857143 0.100000 1.000000
v -0.857143 -0.100000 1.000000
v -0.642857 -0.100000 1.000000
v -0.357143 -0.100000 1.000000
v -0.142857 -0.100000 1.000000
v 0.142857 -0.100000 1.000000
v 0.357143 -0.100000 1.000000
v 0.642857 -0.100000 1.000000
v 0.857143 -0.100000 1.000000
v -0.857143 0.100000 -1.000000
v -0.642857 0.100000 -1.000000
v -0.357143 0.100000 -1.000000
v -0.142857 0.100000 -1.000000
v 0.142857 0.100000 -1.000000
v 0.357143 0.100000 -1.000000
v 0.642857 0.100000 -1.000000
v 0.857143 0.100000 -1.000000
v 0.857143 -0.100000 -1.000000
v 0.642857 -0.100000 -1.000000
v 0.357143 -0.100000 -1.000000
v 0.142857 -0.100000 -1.000000
v -0.142857 -0.100000 -1.000000
v -0.357143 -0.100000 -1.000000
v -0.642857 -0.100000 -1.000000
v -0.857143 -0.100000 -1.000000
v -0.857143 0.100000 -0.333333
v -0.642857 0.100000 -0.333333
v -0.357143 0.100000 -0.333333
v -0.142857 0.100000 -0.333333
v 0.142857 0.100000 -0.333333
v 0.357143 0.100000 -0.333333
v 0.642857 0.100000 -0.333333
v 0.857143 0.100000 -0.333333
v -0.857143 0.100000 0.333333
v -0.642857 0.100000 0.333333
v -0.357143 0.100000 0.333333
v -0.142857 0.100000 0.333333
v 0.142857 0.100000 0.333333
v 0.357143 0.100000 0.333333
v 0.642857 0.100000 0.333333
v 0.857143 0.100000 0.333333
v 0.857143 -0.100000 -0.333333
v 0.642857 -0.100000 -0.333333
v 0.357143 -0.100000 -0.333333
v 0.142857 -0.100000 -0.333333
v -0.142857 -0.100000 -0.333333
v -0.357143 -0.100000 -0.333333
v -0.642857 -0.100000 -0.333333
v -0.857143 -0.100000 -0.333333
v 0.857143 -0.100000 0.333333
v 0.642857 -0.100000 0.333333
v 0.357143 -0.100000 0.333333
v 0.142857 -0.100000 0.333333
v -0.142857 -0.100000 0.333333
v -0.357143 -0.100000 0.333333
v -0.642857 -0.100000 0.333333
v -0.857143 -0.100000 0.333333
v 0.857143 -0.100000 -0.030303
v 0.642857 -0.100000 -0.030303
v 0.357143 -0.100000 -0.030303
v 0.142857 -0.100000 -0.030303
v -0.142857 -0.100000 -0.030303
v -0.357143 -0.100000 -0.030303
v -0.642857 -0.100000 -0.030303
v -0.857143 -0.100000 -0.030303
v 0.857143 -0.100000 0.030303
v 0.642857 -0.100000 0.030303
v 0.357143 -0.100000 0.030303
v 0.142857 -0.100000 0.030303
v -0.142857 -0.100000 0.030303
v -0.357143 -0.100000 0.030303
v -0.642857 -0.100000 0.030303
v -0.857143 -0.100000 0.030303
v -0.857143 0.100000 -0.030303
v -0.642857 0.100000 -0.030303
v -0.357143 0.100000 -0.030303
v -0.142857 0.100000 -0.030303
v 0.142857 0.100000 -0.030303
v 0.357143 0.100000 -0.030303
v 0.642857 0.100000 -0.030303
v 0.857143 0.100000 -0.030303
v -0.857143 0.100000 0.030303
v 0.857143 0.150000 0.333333
v 0.642857 0.150000 0.333333
v -0.642857 0.100000 0.030303
v 0.357143 0.150000 0.333333
v 0.142857 0.150000 0.333333
v -0.142857 0.150000 0.333333
v -0.357143 0.100000 0.030303
v -0.357143 0.150000 0.333333
v -0.642857 0.150000 0.333333
v -0.142857 0.100000 0.030303
v -0.857143 0.150000 0.333333
v 0.857143 0.150000 -0.333333
v 0.642857 0.150000 -0.333333
v 0.142857 0.100000 0.030303
v 0.357143 0.150000 -0.333333
v 0.142857 0.150000 -0.333333
v 0.357143 0.100000 0.030303
v -0.142857 0.150000 -0.333333
v -0.357143 0.150000 -0.333333
v -0.642857 0.150000 -0.333333
v 0.642857 0.100000 0.030303
v -0.857143 0.150000 -0.333333
v 0.857143 0.150000 -1.000000
v 0.857143 0.100000 0.030303
v 0.642857 0.150000 -1.000000
v 1.000000 0.120000 -0.030303
v 1.000000 0.120000 0.030303
v -1.000000 0.120000 0.030303
v -1.000000 0.120000 -0.030303
v 0.357143 0.150000 -1.000000
v 0.142857 0.150000 -1.000000
v -0.142857 0.150000 -1.000000
v -0.857143 0.120000 -0.030303
v -0.642857 0.120000 -0.030303
v -0.357143 0.150000 -1.000000
v -0.642857 0.150000 -1.000000
v -0.857143 0.150000 -1.000000
v -0.357143 0.120000 -0.030303
v -0.142857 0.120000 -0.030303
v -0.857143 0.150000 1.000000
v -0.642857 0.150000 1.000000
v -0.357143 0.150000 1.000000
v 0.142857 0.120000 -0.030303
v 0.357143 0.120000 -0.030303
v -0.142857 0.150000 1.000000
v 0.142857 0.150000 1.000000
v 0.357143 0.150000 1.000000
v 0.642857 0.120000 -0.030303
v 0.857143 0.120000 -0.030303
v 0.642857 0.150000 1.000000
v -0.857143 0.120000 0.030303
v -0.642857 0.120000 0.030303
v 0.857143 0.150000 1.000000
v -1.000000 0.150000 0.333333
v -1.000000 0.150000 1.000000
v -0.357143 0.120000 0.030303
v -0.142857 0.120000 0.030303
v 1.000000 0.150000 -0.333333
v 1.000000 0.150000 -1.000000
v -1.000000 0.150000 -1.000000
v 0.142857 0.120000 0.030303
v 0.357143 0.120000 0.030303
v -1.000000 0.150000 -0.333333
v 1.000000 0.150000 1.000000
v 1.000000 0.150000 0.333333
v 0.642857 0.120000 0.030303
v 0.857143 0.120000 0.030303
vn 1.000000 0.000000 -0.000000
vn -1.000000 0.000000 0.000000
vn 0.000000 0.000000 1.000000
vn 0.000000 0.000000 -1.000000
vn 0.000000 -1.000000 0.000000
vn 0.000000 1.000000 0.000000
usemtl Grey
s off
f 10//1 4//1 3//1 11//1
f 14//2 6//2 5//2 15//2
f 4//3 25//3 40//3 3//3
f 6//4 41//4 56//4 5//4
f 11//5 3//5 40//5 81//5
f 71//4 70//4 117//4 115//4
f 62//3 63//3 126//3 128//3
f 8//2 13//2 16//2 7//2
f 2//1 9//1 12//1 1//1
f 1//5 12//5 73//5 49//5
f 12//5 20//5 89//5 73//5
f 20//5 19//5 97//5 89//5
f 19//5 11//5 81//5 97//5
f 115//6 163//6 166//6 114//6
f 114//6 166//6 177//6 178//6
f 136//6 125//6 171//6 172//6
f 124//6 153//6 154//6 122//6
f 122//6 154//6 155//6 121//6
f 167//6 168//6 153//6 124//6
f 121//6 155//6 158//6 119//6
f 150//6 135//6 133//6 149//6
f 97//5 81//5 82//5 98//5
f 98//5 82//5 83//5 99//5
f 99//5 83//5 84//5 100//5
f 100//5 84//5 85//5 101//5
f 101//5 85//5 86//5 102//5
f 102//5 86//5 87//5 103//5
f 103//5 87//5 88//5 104//5
f 104//5 88//5 16//5 24//5
f 89//5 97//5 98//5 90//5
f 90//5 98//5 99//5 91//5
f 91//5 99//5 100//5 92//5
f 92//5 100//5 101//5 93//5
f 93//5 101//5 102//5 94//5
f 94//5 102//5 103//5 95//5
f 95//5 103//5 104//5 96//5
f 96//5 104//5 24//5 23//5
f 73//5 89//5 90//5 74//5
f 74//5 90//5 91//5 75//5
f 75//5 91//5 92//5 76//5
f 76//5 92//5 93//5 77//5
f 77//5 93//5 94//5 78//5
f 78//5 94//5 95//5 79//5
f 79//5 95//5 96//5 80//5
f 80//5 96//5 23//5 15//5
f 49//5 73//5 74//5 50//5
f 50//5 74//5 75//5 51//5
f 51//5 75//5 76//5 52//5
f 52//5 76//5 77//5 53//5
f 53//5 77//5 78//5 54//5
f 54//5 78//5 79//5 55//5
f 55//5 79//5 80//5 56//5
f 56//5 80//5 15//5 5//5
f 47//4 46//4 143//4 138//4
f 67//4 66//4 122//4 121//4
f 58//3 59//3 132//3 133//3
f 31//3 30//3 155//3 154//3
f 43//4 42//4 149//4 148//4
f 9//1 2//1 172//1 171//1
f 27//3 26//3 163//3 160//3
f 70//4 69//4 118//4 117//4
f 61//3 62//3 128//3 129//3
f 46//4 45//4 144//4 143//4
f 66//4 65//4 124//4 122//4
f 57//3 58//3 133//3 135//3
f 30//3 29//3 158//3 155//3
f 42//4 41//4 150//4 149//4
f 26//3 25//3 166//3 163//3
f 6//2 14//2 176//2 173//2
f 81//5 40//5 39//5 82//5
f 82//5 39//5 38//5 83//5
f 83//5 38//5 37//5 84//5
f 84//5 37//5 36//5 85//5
f 85//5 36//5 35//5 86//5
f 86//5 35//5 34//5 87//5
f 87//5 34//5 33//5 88//5
f 88//5 33//5 7//5 16//5
f 41//4 42//4 55//4 56//4
f 42//4 43//4 54//4 55//4
f 43//4 44//4 53//4 54//4
f 44//4 45//4 52//4 53//4
f 45//4 46//4 51//4 52//4
f 46//4 47//4 50//4 51//4
f 47//4 48//4 49//4 50//4
f 48//4 2//4 1//4 49//4
f 25//3 26//3 39//3 40//3
f 26//3 27//3 38//3 39//3
f 27//3 28//3 37//3 38//3
f 60//3 61//3 129//3 131//3
f 69//4 68//4 119//4 118//4
f 45//4 44//4 145//4 144//4
f 28//3 29//3 36//3 37//3
f 14//3 57//3 135//3 176//3
f 65//4 13//4 167//4 124//4
f 29//3 30//3 35//3 36//3
f 41//4 6//4 173//4 150//4
f 29//3 28//3 159//3 158//3
f 25//3 4//3 177//3 166//3
f 30//3 31//3 34//3 35//3
f 64//3 9//3 171//3 125//3
f 10//4 72//4 114//4 178//4
f 31//3 32//3 33//3 34//3
f 32//3 8//3 7//3 33//3
f 2//4 48//4 136//4 172//4
f 119//6 158//6 159//6 118//6
f 63//3 64//3 125//3 126//3
f 8//3 32//3 153//3 168//3
f 48//4 47//4 138//4 136//4
f 72//4 71//4 115//4 114//4
f 59//3 60//3 131//3 132//3
f 32//3 31//3 154//3 153//3
f 68//4 67//4 121//4 119//4
f 28//3 27//3 160//3 159//3
f 4//1 10//1 178//1 177//1
f 44//4 43//4 148//4 145//4
f 13//2 8//2 168//2 167//2
f 117//6 160//6 163//6 115//6
f 118//6 159//6 160//6 117//6
f 138//6 126//6 125//6 136//6
f 143//6 128//6 126//6 138//6
f 144//6 129//6 128//6 143//6
f 173//6 176//6 135//6 150//6
f 145//6 131//6 129//6 144//6
f 148//6 132//6 131//6 145//6
f 149//6 133//6 132//6 148//6
usemtl Black
f 9//1 17//1 20//1 12//1
f 17//1 18//1 19//1 20//1
f 18//1 10//1 11//1 19//1
f 13//2 21//2 24//2 16//2
f 21//2 22//2 23//2 24//2
f 22//2 14//2 15//2 23//2
f 113//6 65//6 66//6 116//6
f 116//6 66//6 67//6 120//6
f 120//6 67//6 68//6 123//6
f 123//6 68//6 69//6 127//6
f 127//6 69//6 70//6 130//6
f 130//6 70//6 71//6 134//6
f 134//6 71//6 72//6 137//6
f 137//6 72//6 10//6 18//6
f 105//6 113//6 116//6 106//6
f 107//6 120//6 123//6 108//6
f 14//6 22//6 105//6 57//6
f 109//6 127//6 130//6 110//6
f 111//6 134//6 137//6 112//6
f 57//6 105//6 106//6 58//6
f 58//6 106//6 107//6 59//6
f 59//6 107//6 108//6 60//6
f 60//6 108//6 109//6 61//6
f 61//6 109//6 110//6 62//6
f 62//6 110//6 111//6 63//6
f 63//6 111//6 112//6 64//6
f 64//6 112//6 17//6 9//6
f 21//6 13//6 65//6 113//6
usemtl White
f 141//6 164//6 146//6 142//6
f 18//1 17//1 139//1 140//1
f 110//2 130//2 175//2 157//2
f 106//2 116//2 165//2 147//2
f 127//1 109//1 156//1 174//1
f 22//4 142//4 146//4 105//4
f 21//3 113//3 164//3 141//3
f 113//1 105//1 146//1 164//1
f 165//6 169//6 151//6 147//6
f 170//6 174//6 156//6 152//6
f 175//6 179//6 161//6 157//6
f 162//6 180//6 140//6 139//6
f 106//4 147//4 151//4 107//4
f 116//3 120//3 169//3 165//3
f 110//4 157//4 161//4 111//4
f 120//1 107//1 151//1 169//1
f 130//3 134//3 179//3 175//3
f 17//4 112//4 162//4 139//4
f 134//1 111//1 161//1 179//1
f 137//3 18//3 140//3 180//3
f 108//2 123//2 170//2 152//2
f 22//2 21//2 141//2 142//2
f 123//3 127//3 174//3 170//3
f 112//2 137//2 180//2 162//2
f 108//4 152//4 156//4 109//4
