# Blender v2.76 (sub 0) OBJ File: 'Street_Empty.blend'
# www.blender.org
mtllib Street_Empty.mtl
o Street_Empty_Cube
v -1.000000 -0.100000 1.000000
v -1.000000 -0.100000 -1.000000
v 1.000000 -0.100000 1.000000
v 1.000000 -0.100000 -1.000000
v -1.000000 0.150000 1.000000
v -1.000000 0.150000 -1.000000
v 1.000000 0.150000 -1.000000
v 1.000000 0.150000 1.000000
vn 0.000000 0.000000 -1.000000
vn 1.000000 0.000000 0.000000
vn 0.000000 0.000000 1.000000
vn 0.000000 -1.000000 0.000000
vn 0.000000 1.000000 0.000000
vn -1.000000 0.000000 0.000000
usemtl Grey
s off
f 2//1 6//1 7//1 4//1
f 4//2 7//2 8//2 3//2
f 3//3 8//3 5//3 1//3
f 1//4 2//4 4//4 3//4
f 8//5 7//5 6//5 5//5
f 1//6 5//6 6//6 2//6
