# Blender v2.76 (sub 0) OBJ File: 'Street_Elevated.blend'
# www.blender.org
mtllib Street_Elevated.mtl
o Street_Elevated_Cube.008
v 1.000000 -0.100000 -1.000000
v 1.000000 0.100000 -1.000000
v 1.000000 -0.100000 1.000000
v 1.000000 0.100000 1.000000
v -1.000000 -0.100000 -1.000000
v -1.000000 0.100000 -1.000000
v -1.000000 -0.100000 1.000000
v -1.000000 0.100000 1.000000
v 1.000000 0.100000 -0.333333
v 1.000000 0.100000 0.333333
v 1.000000 -0.100000 0.333333
v 1.000000 -0.100000 -0.333333
v -1.000000 0.100000 0.333333
v -1.000000 0.100000 -0.333333
v -1.000000 -0.100000 -0.333333
v -1.000000 -0.100000 0.333333
v 1.000000 0.100000 -0.030303
v 1.000000 0.100000 0.030303
v 1.000000 -0.100000 0.030303
v 1.000000 -0.100000 -0.030303
v -1.000000 0.100000 0.030303
v -1.000000 0.100000 -0.030303
v -1.000000 -0.100000 -0.030303
v -1.000000 -0.100000 0.030303
v 0.857143 0.100000 1.000000
v 0.642857 0.100000 1.000000
v 0.357143 0.100000 1.000000
v 0.142857 0.100000 1.000000
v -0.142857 0.100000 1.000000
v -0.357143 0.100000 1.000000
v -0.642857 0.100000 1.000000
v -0.857143 0.100000 1.000000
v -0.857143 -0.100000 1.000000
v -0.642857 -0.100000 1.000000
v -0.357143 -0.100000 1.000000
v -0.142857 -0.100000 1.000000
v 0.142857 -0.100000 1.000000
v 0.357143 -0.100000 1.000000
v 0.642857 -0.100000 1.000000
v 0.857143 -0.100000 1.000000
v -0.857143 0.100000 -1.000000
v -0.642857 0.100000 -1.000000
v -0.357143 0.100000 -1.000000
v -0.142857 0.100000 -1.000000
v 0.142857 0.100000 -1.000000
v 0.357143 0.100000 -1.000000
v 0.642857 0.100000 -1.000000
v 0.857143 0.100000 -1.000000
v 0.857143 -0.100000 -1.000000
v 0.642857 -0.100000 -1.000000
v 0.357143 -0.100000 -1.000000
v 0.142857 -0.100000 -1.000000
v -0.142857 -0.100000 -1.000000
v -0.357143 -0.100000 -1.000000
v -0.642857 -0.100000 -1.000000
v -0.857143 -0.100000 -1.000000
v 0.857143 -0.100000 -0.333333
v 0.642857 -0.100000 -0.333333
v 0.357143 -0.100000 -0.333333
v 0.142857 -0.100000 -0.333333
v -0.142857 -0.100000 -0.333333
v -0.357143 -0.100000 -0.333333
v -0.642857 -0.100000 -0.333333
v -0.857143 -0.100000 -0.333333
v 0.857143 -0.100000 0.333333
v 0.642857 -0.100000 0.333333
v 0.357143 -0.100000 0.333333
v 0.142857 -0.100000 0.333333
v -0.142857 -0.100000 0.333333
v -0.357143 -0.100000 0.333333
v -0.642857 -0.100000 0.333333
v -0.857143 -0.100000 0.333333
v 0.857143 -0.100000 -0.030303
v 0.642857 -0.100000 -0.030303
v 0.357143 -0.100000 -0.030303
v 0.142857 -0.100000 -0.030303
v -0.142857 -0.100000 -0.030303
v -0.357143 -0.100000 -0.030303
v -0.642857 -0.100000 -0.030303
v -0.857143 -0.100000 -0.030303
v 0.857143 -0.100000 0.030303
v 0.642857 -0.100000 0.030303
v 0.357143 -0.100000 0.030303
v 0.142857 -0.100000 0.030303
v -0.142857 -0.100000 0.030303
v -0.357143 -0.100000 0.030303
v -0.642857 -0.100000 0.030303
v -0.857143 -0.100000 0.030303
v -0.142857 0.459848 0.030303
v -0.357143 0.459848 0.030303
v -0.642857 0.459848 0.030303
v -0.857143 0.459848 0.030303
v 0.857143 0.459848 -0.030303
v 0.642857 0.459848 -0.030303
v 0.357143 0.459848 -0.030303
v 0.142857 0.459848 -0.030303
v -0.142857 0.459848 -0.030303
v -0.357143 0.459848 -0.030303
v -0.642857 0.459848 -0.030303
v -0.857143 0.459848 -0.030303
v 0.857143 0.459848 0.333333
v 0.642857 0.459848 0.333333
v 0.357143 0.459848 0.333333
v 0.857143 0.150000 -1.000000
v 0.142857 0.459848 0.333333
v 0.642857 0.150000 -1.000000
v -0.142857 0.459848 0.333333
v -0.357143 0.459848 0.333333
v -0.642857 0.459848 0.333333
v 1.000000 0.459848 -0.030303
v 0.357143 0.150000 -1.000000
v 0.142857 0.150000 -1.000000
v -0.142857 0.150000 -1.000000
v 1.000000 0.459848 0.333333
v 1.000000 0.459848 0.030303
v -0.357143 0.150000 -1.000000
v -0.642857 0.150000 -1.000000
v -0.857143 0.150000 -1.000000
v -1.000000 0.459848 0.030303
v -1.000000 0.459848 -0.030303
v -0.857143 0.150000 1.000000
v -0.642857 0.150000 1.000000
v -0.357143 0.150000 1.000000
v -1.000000 0.459848 -0.333333
v -0.857143 0.459848 -0.333333
v -0.142857 0.150000 1.000000
v 0.142857 0.150000 1.000000
v 0.357143 0.150000 1.000000
v -0.642857 0.459848 -0.333333
v -0.357143 0.459848 -0.333333
v 0.642857 0.150000 1.000000
v -0.142857 0.459848 -0.333333
v 0.142857 0.459848 -0.333333
v 0.857143 0.150000 1.000000
v -1.000000 0.150000 0.333333
v -1.000000 0.150000 1.000000
v 0.357143 0.459848 -0.333333
v 0.642857 0.459848 -0.333333
v 1.000000 0.150000 -0.333333
v 1.000000 0.150000 -1.000000
v -1.000000 0.150000 -1.000000
v 1.000000 0.459848 -0.333333
v 0.857143 0.459848 -0.333333
v -1.000000 0.150000 -0.333333
v 1.000000 0.150000 1.000000
v -0.857143 0.459848 0.333333
v -1.000000 0.459848 0.333333
v 1.000000 0.148353 -0.030303
v 1.000000 0.148353 0.030303
v 1.000000 0.148353 0.333333
v -1.000000 0.148353 0.030303
v -1.000000 0.148353 -0.030303
v -0.857143 0.148353 -0.333333
v -0.642857 0.148353 -0.333333
v -0.357143 0.148353 -0.333333
v -0.142857 0.148353 -0.333333
v 0.142857 0.148353 -0.333333
v 0.357143 0.148353 -0.333333
v 0.642857 0.148353 -0.333333
v 0.857143 0.148353 -0.333333
v -0.857143 0.148353 0.333333
v -0.642857 0.148353 0.333333
v -0.357143 0.148353 0.333333
v -0.142857 0.148353 0.333333
v 0.142857 0.148353 0.333333
v 0.357143 0.148353 0.333333
v 0.642857 0.148353 0.333333
v 0.857143 0.148353 0.333333
v 0.142857 0.459848 0.030303
v 0.357143 0.459848 0.030303
v 0.642857 0.459848 0.030303
v 0.857143 0.459848 0.030303
v -0.642857 0.479848 -0.030303
v -0.642857 0.479848 0.030303
v 0.142857 0.479848 0.030303
v 0.142857 0.479848 -0.030303
v -0.857143 0.479848 0.030303
v -0.857143 0.479848 -0.030303
v 1.000000 0.479848 -0.030303
v 1.000000 0.479848 0.030303
v -1.000000 0.479848 0.030303
v -1.000000 0.479848 -0.030303
v -0.357143 0.479848 -0.030303
v -0.142857 0.479848 -0.030303
v 0.357143 0.479848 -0.030303
v 0.642857 0.479848 -0.030303
v 0.857143 0.479848 -0.030303
v -0.357143 0.479848 0.030303
v -0.142857 0.479848 0.030303
v 0.357143 0.479848 0.030303
v 0.642857 0.479848 0.030303
v 0.857143 0.479848 0.030303
v 0.357143 0.342212 -0.333333
v -0.642857 0.326098 -0.333333
v -0.357143 0.329306 -0.333333
v 0.642857 0.276423 -0.333333
v -0.857143 0.221021 -0.333333
v 0.142857 0.345564 -0.333333
v -0.142857 0.362091 -0.333333
vn 1.000000 0.000000 -0.000000
vn -1.000000 0.000000 0.000000
vn 0.000000 0.000000 1.000000
vn 0.000000 0.000000 -1.000000
vn 0.000000 -1.000000 0.000000
vn -0.000000 1.000000 -0.002500
vn 0.000000 1.000000 0.002500
vn 0.005800 1.000000 0.001200
vn 0.005800 1.000000 -0.001200
vn -0.005800 1.000000 0.001200
vn 0.000000 1.000000 -0.000000
usemtl Grey
s off
f 10//1 4//1 3//1 11//1
f 14//2 6//2 5//2 15//2
f 4//3 25//3 40//3 3//3
f 6//4 41//4 56//4 5//4
f 11//5 3//5 40//5 65//5
f 8//2 13//2 16//2 7//2
f 2//1 9//1 12//1 1//1
f 1//5 12//5 57//5 49//5
f 12//5 20//5 73//5 57//5
f 20//5 19//5 81//5 73//5
f 19//5 11//5 65//5 81//5
f 167//6 131//6 134//6 168//6
f 4//1 10//1 150//1 145//1
f 106//7 159//7 160//7 104//7
f 161//6 121//6 122//6 162//6
f 166//6 128//6 131//6 167//6
f 163//6 123//6 126//6 164//6
f 118//7 153//7 154//7 117//7
f 81//5 65//5 66//5 82//5
f 82//5 66//5 67//5 83//5
f 83//5 67//5 68//5 84//5
f 84//5 68//5 69//5 85//5
f 85//5 69//5 70//5 86//5
f 86//5 70//5 71//5 87//5
f 87//5 71//5 72//5 88//5
f 88//5 72//5 16//5 24//5
f 73//5 81//5 82//5 74//5
f 74//5 82//5 83//5 75//5
f 75//5 83//5 84//5 76//5
f 76//5 84//5 85//5 77//5
f 77//5 85//5 86//5 78//5
f 78//5 86//5 87//5 79//5
f 79//5 87//5 88//5 80//5
f 80//5 88//5 24//5 23//5
f 57//5 73//5 74//5 58//5
f 58//5 74//5 75//5 59//5
f 59//5 75//5 76//5 60//5
f 60//5 76//5 77//5 61//5
f 61//5 77//5 78//5 62//5
f 62//5 78//5 79//5 63//5
f 63//5 79//5 80//5 64//5
f 64//5 80//5 23//5 15//5
f 49//5 57//5 58//5 50//5
f 50//5 58//5 59//5 51//5
f 51//5 59//5 60//5 52//5
f 52//5 60//5 61//5 53//5
f 53//5 61//5 62//5 54//5
f 54//5 62//5 63//5 55//5
f 55//5 63//5 64//5 56//5
f 56//5 64//5 15//5 5//5
f 47//4 46//4 111//4 106//4
f 31//3 30//3 123//3 122//3
f 43//4 42//4 117//4 116//4
f 9//1 2//1 140//1 139//1
f 27//3 26//3 131//3 128//3
f 46//4 45//4 112//4 111//4
f 30//3 29//3 126//3 123//3
f 42//4 41//4 118//4 117//4
f 26//3 25//3 134//3 131//3
f 6//2 14//2 144//2 141//2
f 65//5 40//5 39//5 66//5
f 66//5 39//5 38//5 67//5
f 67//5 38//5 37//5 68//5
f 68//5 37//5 36//5 69//5
f 69//5 36//5 35//5 70//5
f 70//5 35//5 34//5 71//5
f 71//5 34//5 33//5 72//5
f 72//5 33//5 7//5 16//5
f 41//4 42//4 55//4 56//4
f 42//4 43//4 54//4 55//4
f 43//4 44//4 53//4 54//4
f 44//4 45//4 52//4 53//4
f 45//4 46//4 51//4 52//4
f 46//4 47//4 50//4 51//4
f 47//4 48//4 49//4 50//4
f 48//4 2//4 1//4 49//4
f 25//3 26//3 39//3 40//3
f 26//3 27//3 38//3 39//3
f 27//3 28//3 37//3 38//3
f 45//4 44//4 113//4 112//4
f 28//3 29//3 36//3 37//3
f 29//3 30//3 35//3 36//3
f 41//4 6//4 141//4 118//4
f 29//3 28//3 127//3 126//3
f 25//3 4//3 145//3 134//3
f 30//3 31//3 34//3 35//3
f 31//3 32//3 33//3 34//3
f 32//3 8//3 7//3 33//3
f 2//4 48//4 104//4 140//4
f 164//6 126//6 127//6 165//6
f 8//3 32//3 121//3 136//3
f 48//4 47//4 106//4 104//4
f 32//3 31//3 122//3 121//3
f 28//3 27//3 128//3 127//3
f 44//4 43//4 116//4 113//4
f 13//2 8//2 136//2 135//2
f 168//6 134//6 145//6 150//6
f 165//6 127//6 128//6 166//6
f 141//8 144//8 153//8 118//8
f 117//7 154//7 155//7 116//7
f 112//7 157//7 158//7 111//7
f 113//7 156//7 157//7 112//7
f 116//7 155//7 156//7 113//7
f 135//9 136//9 121//9 161//9
f 111//7 158//7 159//7 106//7
f 104//10 160//10 139//10 140//10
f 162//6 122//6 123//6 163//6
usemtl Black
f 129//11 99//11 98//11 130//11
f 9//1 17//1 20//1 12//1
f 17//1 18//1 19//1 20//1
f 18//1 10//1 11//1 19//1
f 13//2 21//2 24//2 16//2
f 21//2 22//2 23//2 24//2
f 22//2 14//2 15//2 23//2
f 125//11 100//11 99//11 129//11
f 94//11 171//11 172//11 93//11
f 92//11 146//11 109//11 91//11
f 91//11 109//11 108//11 90//11
f 90//11 108//11 107//11 89//11
f 89//11 107//11 105//11 169//11
f 169//11 105//11 103//11 170//11
f 170//11 103//11 102//11 171//11
f 171//11 102//11 101//11 172//11
f 172//11 101//11 114//11 115//11
f 100//11 92//11 91//11 99//11
f 98//11 90//11 89//11 97//11
f 124//11 120//11 100//11 125//11
f 96//11 169//11 170//11 95//11
f 10//1 18//1 149//1 150//1
f 153//4 144//4 197//4
f 139//4 160//4 143//4 142//4
f 144//2 152//2 120//2 124//2
f 148//1 139//1 142//1 110//1
f 163//3 164//3 107//3 108//3
f 152//2 151//2 119//2 120//2
f 162//3 163//3 108//3 109//3
f 160//4 159//4 196//4
f 151//2 135//2 147//2 119//2
f 135//3 161//3 146//3 147//3
f 157//4 156//4 199//4 198//4
f 161//3 162//3 109//3 146//3
f 168//3 150//3 114//3 101//3
f 158//4 157//4 198//4 193//4
f 149//1 148//1 110//1 115//1
f 167//3 168//3 101//3 102//3
f 154//4 153//4 197//4 194//4
f 150//1 149//1 115//1 114//1
f 166//3 167//3 102//3 103//3
f 155//4 154//4 194//4 195//4
f 165//3 166//3 103//3 105//3
f 156//4 155//4 195//4 199//4
f 164//3 165//3 105//3 107//3
f 159//4 158//4 193//4 196//4
f 130//11 98//11 97//11 132//11
f 132//11 97//11 96//11 133//11
f 133//11 96//11 95//11 137//11
f 137//11 95//11 94//11 138//11
f 138//11 94//11 93//11 143//11
f 143//11 93//11 110//11 142//11
f 119//11 147//11 146//11 92//11
f 18//1 17//1 148//1 149//1
f 17//1 9//1 139//1 148//1
f 14//2 22//2 152//2 144//2
f 22//2 21//2 151//2 152//2
f 21//2 13//2 135//2 151//2
f 195//4 194//4 129//4 130//4
f 196//4 193//4 137//4 138//4
f 198//4 199//4 132//4 133//4
f 194//4 197//4 125//4 129//4
f 143//4 160//4 196//4 138//4
f 193//4 198//4 133//4 137//4
f 199//4 195//4 130//4 132//4
f 144//4 124//4 125//4 197//4
usemtl White
f 92//1 100//1 178//1 177//1
f 119//3 92//3 177//3 181//3
f 181//11 177//11 178//11 182//11
f 115//1 110//1 179//1 180//1
f 95//2 170//2 190//2 185//2
f 99//2 91//2 174//2 173//2
f 169//1 96//1 176//1 175//1
f 120//4 182//4 178//4 100//4
f 174//11 188//11 183//11 173//11
f 189//11 175//11 176//11 184//11
f 190//11 191//11 186//11 185//11
f 187//11 192//11 180//11 179//11
f 99//4 173//4 183//4 98//4
f 91//3 90//3 188//3 174//3
f 95//4 185//4 186//4 94//4
f 90//1 98//1 183//1 188//1
f 170//3 171//3 191//3 190//3
f 110//4 93//4 187//4 179//4
f 171//1 94//1 186//1 191//1
f 172//3 115//3 180//3 192//3
f 97//2 89//2 189//2 184//2
f 120//2 119//2 181//2 182//2
f 89//3 169//3 175//3 189//3
f 93//2 172//2 192//2 187//2
f 97//4 184//4 176//4 96//4
